<?xml version="1.0" encoding="UTF-8" standalone="no"?>
<svg
   xmlns:dc="http://purl.org/dc/elements/1.1/"
   xmlns:cc="http://creativecommons.org/ns#"
   xmlns:rdf="http://www.w3.org/1999/02/22-rdf-syntax-ns#"
   xmlns:svg="http://www.w3.org/2000/svg"
   xmlns="http://www.w3.org/2000/svg"
   xmlns:sodipodi="http://sodipodi.sourceforge.net/DTD/sodipodi-0.dtd"
   xmlns:inkscape="http://www.inkscape.org/namespaces/inkscape"
   width="55.678253mm"
   height="31.783072mm"
   viewBox="0 0 55.678253 31.783072"
   version="1.1"
   id="svg6848"
   sodipodi:docname="building-u.svg"
   inkscape:version="0.92.1 r15371">
  <sodipodi:namedview
     pagecolor="#ffffff"
     bordercolor="#666666"
     borderopacity="1"
     objecttolerance="10"
     gridtolerance="10"
     guidetolerance="10"
     inkscape:pageopacity="0"
     inkscape:pageshadow="2"
     inkscape:window-width="1600"
     inkscape:window-height="836"
     id="namedview5713"
     showgrid="false"
     inkscape:zoom="3.0412832"
     inkscape:cx="105.21875"
     inkscape:cy="60.062497"
     inkscape:window-x="0"
     inkscape:window-y="27"
     inkscape:window-maximized="1"
     inkscape:current-layer="svg6848" />
  <defs
     id="defs6842">
    <clipPath
       clipPathUnits="userSpaceOnUse"
       id="clipPath1404">
      <path
         d="m 441.779,320.221 h 369.347 v 203.89 H 441.779 Z"
         id="path1402" />
    </clipPath>
    <clipPath
       clipPathUnits="userSpaceOnUse"
       id="clipPath1496">
      <path
         d="m 441.779,320.221 h 369.347 v 203.89 H 441.779 Z"
         id="path1494" />
    </clipPath>
    <clipPath
       clipPathUnits="userSpaceOnUse"
       id="clipPath1532">
      <path
         d="m 441.779,320.221 h 369.347 v 203.89 H 441.779 Z"
         id="path1530" />
    </clipPath>
    <clipPath
       clipPathUnits="userSpaceOnUse"
       id="clipPath1562">
      <path
         d="m 441.779,320.221 h 369.347 v 203.89 H 441.779 Z"
         id="path1560" />
    </clipPath>
    <clipPath
       clipPathUnits="userSpaceOnUse"
       id="clipPath1586">
      <path
         d="m 441.779,320.221 h 369.347 v 203.89 H 441.779 Z"
         id="path1584" />
    </clipPath>
    <filter
       style="color-interpolation-filters:sRGB"
       id="filter7727">
      <feColorMatrix
         type="hueRotate"
         values="180"
         result="color1"
         id="feColorMatrix7723" />
      <feColorMatrix
         values="-1 0 0 0 1 0 -1 0 0 1 0 0 -1 0 1 -0.21 -0.72 -0.07 2 0 "
         result="color2"
         id="feColorMatrix7725" />
    </filter>
  </defs>
  <metadata
     id="metadata6845">
    <rdf:RDF>
      <cc:Work
         rdf:about="">
        <dc:format>image/svg+xml</dc:format>
        <dc:type
           rdf:resource="http://purl.org/dc/dcmitype/StillImage" />
        <dc:title />
      </cc:Work>
    </rdf:RDF>
  </metadata>
  <g
     transform="translate(1.5875001,1.4802798)"
     id="g9499">
    <g
       style="filter:url(#filter7727)"
       id="g1272"
       transform="matrix(0.14327103,0,0,-0.14327103,39.937101,14.865931)">
      <path
         d="m 0,0 h 29.479 13.885 v 3.873 h 5.832 v -4.625 h 9.315 v 2.807 h 6.028 V 0.312 H 81.47 v 1.722 h 4.31 V 0.032 h 3.352 V -9.632 H 64.169 58.478 l -5.746,-0.13 H 29.239 v -21.57 h -5.006 v 1.982 h -3.112 v 8.75 h -1.828 v 10.412 H 9.325 V -29.241 H 5.429 v -1.909 h -5.31 z"
         style="fill:#d3d2d2;fill-opacity:1;fill-rule:nonzero;stroke:none"
         id="path1274" />
    </g>
    <g
       style="filter:url(#filter7727)"
       id="g1276"
       transform="matrix(0.14327103,0,0,-0.14327103,40.016301,24.720758)">
      <path
         d="m 0,0 h -20.478 v -10.269 h -9.598 v -9.275 h 40.524 v 5.245 l 3.374,3.373 h 5.436 v 2.517 h 2.997 v 1.967 H 45.27 v -1.837 h 5.963 v 1.62 h 13.363 11.665 v 6.398 H 9.995 V -7.509 L 6.729,-10.775 H 0 Z"
         style="fill:#d3d2d2;fill-opacity:1;fill-rule:nonzero;stroke:none"
         id="path1278" />
    </g>
    <g
       style="filter:url(#filter7727)"
       id="g1280"
       transform="matrix(0.14327103,0,0,-0.14327103,8.3337037,14.836475)">
      <path
         d="M 0,0 V 9.859 H -29.381 V -0.762 h -14.211 v -19.839 h 37.411 l -0.035,-18.923 h -3.557 l -12.926,-4.743 1.469,-4.102 11.632,4.274 H 0 v 25.456 h 5.332 v -1.296 h 18.499 v 1.849 h 5.746 V 0 Z"
         style="fill:#d3d2d2;fill-opacity:1;fill-rule:nonzero;stroke:none"
         id="path1282" />
    </g>
    <path
       d="m 441.779,351.042 h 29.243 v 48.911 h -29.243 z"
       style="fill:#918f90;fill-opacity:1;fill-rule:nonzero;stroke:none;filter:url(#filter7727)"
       id="path1284"
       transform="matrix(0.14327103,0,0,-0.14327103,-63.294132,75.08978)" />
    <g
       style="filter:url(#filter7727)"
       id="g1286"
       transform="matrix(0.14327103,0,0,-0.14327103,12.552434,24.050478)">
      <path
         d="m 0,0 h -28.543 v 45.657 h 4.209 v -2.456 l 18.719,-0.008 v 3.033 H 0 Z"
         style="fill:#918f90;fill-opacity:1;fill-rule:nonzero;stroke:none"
         id="path1288" />
    </g>
    <g
       style="filter:url(#filter7727)"
       id="g1290"
       transform="matrix(0.14327103,0,0,-0.14327103,52.657147,14.892537)">
      <path
         d="M 0,0 H -2.873 V 1.795 H -6.897 V 0 H -24.7 V 1.795 L -30.272,1.774 V 29.522 H 0 Z"
         style="fill:#918f90;fill-opacity:1;fill-rule:nonzero;stroke:none"
         id="path1292" />
    </g>
    <path
       d="m 618.71,321.661 h -59.501 v 28.41 h 59.501 z"
       style="fill:#918f90;fill-opacity:1;fill-rule:nonzero;stroke:none;filter:url(#filter7727)"
       id="path1294"
       transform="matrix(0.14327103,0,0,-0.14327103,-63.294132,75.08978)" />
    <g
       style="filter:url(#filter7727)"
       id="g1296"
       transform="matrix(0.14327103,0,0,-0.14327103,42.769569,25.925495)">
      <path
         d="M 0,0 H 2.873 L 2.852,1.967 H 26.205 V 0.303 h 3.092 V -21.234 H 0 Z"
         style="fill:#918f90;fill-opacity:1;fill-rule:nonzero;stroke:none"
         id="path1298" />
    </g>
    <g
       style="filter:url(#filter7727)"
       id="g1300"
       transform="matrix(0.14327103,0,0,-0.14327103,42.910104,19.055262)">
      <path
         d="m 0,0 h -11.426 v 19.053 h 9.968 V 8.358 L 0,8.327 Z"
         style="fill:#918f90;fill-opacity:1;fill-rule:nonzero;stroke:none"
         id="path1302" />
    </g>
    <g
       style="filter:url(#filter7727)"
       id="g1304"
       transform="matrix(0.14327103,0,0,-0.14327103,5.0566224,21.852543)">
      <path
         d="m 0,0 v -10.118 h 8.771 v -0.892 h 1.706 v -9.75 H 23.331 V 4.875 H 13.315 Z"
         style="fill:#918f90;fill-opacity:1;fill-rule:nonzero;stroke:none"
         id="path1306" />
    </g>
    <text
       transform="matrix(0.14327103,0,0,0.14327103,9.0622082,21.156146)"
       style="font-variant:normal;font-weight:normal;font-stretch:normal;font-size:3.78830004px;font-family:FrutigerLTStd;-inkscape-font-specification:FrutigerLTStd-Roman;writing-mode:lr-tb;fill:#231f20;fill-opacity:1;fill-rule:nonzero;stroke:none;filter:url(#filter7727)"
       id="text1328">
      <tspan
         x="0 2.7351525 5.470305 7.5766001 8.6297474 10.736042 12.842337 14.948632"
         y="0"
         id="tspan1308">UD2.218A</tspan>
      <tspan
         x="-12.770359 -8.9820595"
         y="13.285568"
         id="tspan1310">WC</tspan>
      <tspan
         x="-24.472418 -20.684118"
         y="10.849691"
         id="tspan1312">WC</tspan>
      <tspan
         x="-55.91531 -53.180157 -50.445004 -48.338707 -47.285561 -45.179264 -43.072971"
         y="1.3865178"
         id="tspan1314">UD2.120</tspan>
      <tspan
         x="-58.612579 -56.297928 -53.562775 -50.967789 -48.581158 -45.846008 -43.110855 -40.375702"
         y="5.932478"
         id="tspan1316">CHAVANNE</tspan>
      <tspan
         x="281.67148 284.40662 287.14178 289.24808 290.30121 292.4075 294.51379"
         y="-57.381378"
         id="tspan1318">UA2.114</tspan>
      <tspan
         x="75.292465 78.027618 80.34227 82.448563 83.501709 85.608002 87.714294 89.820595"
         y="39.405895"
         id="tspan1320">UB2.252A</tspan>
      <tspan
         x="75.504608 77.398758 80.133911 83.710068 85.81636 87.922653 90.237305"
         y="43.951859"
         id="tspan1322">LAMEERE</tspan>
      <tspan
         x="242.65198 245.38713 247.70178 249.80807 250.86122 252.96751 255.07382"
         y="44.023834"
         id="tspan1324">UB2.147</tspan>
      <tspan
         x="226.67293 230.46123"
         y="-23.506401"
         id="tspan1326">WC</tspan>
    </text>
    <g
       style="filter:url(#filter7727)"
       id="g1330"
       transform="matrix(0.14327103,0,0,-0.14327103,6.7473065,14.856762)">
      <path
         d="m 0,0 -0.887,-0.929 -0.915,0.874"
         style="fill:none;stroke:#231f20;stroke-width:0.244;stroke-linecap:butt;stroke-linejoin:miter;stroke-miterlimit:10;stroke-dasharray:none;stroke-opacity:1"
         id="path1332" />
    </g>
    <g
       style="filter:url(#filter7727)"
       id="g1334"
       transform="matrix(0.14327103,0,0,-0.14327103,7.0100083,14.388954)">
      <path
         d="M 0,0 -5.404,-0.001"
         style="fill:none;stroke:#231f20;stroke-width:0.244;stroke-linecap:butt;stroke-linejoin:miter;stroke-miterlimit:10;stroke-dasharray:none;stroke-opacity:1"
         id="path1336" />
    </g>
    <g
       style="filter:url(#filter7727)"
       id="g1338"
       transform="matrix(0.14327103,0,0,-0.14327103,7.0100083,14.268205)">
      <path
         d="M 0,0 -5.404,-0.001"
         style="fill:none;stroke:#231f20;stroke-width:0.244;stroke-linecap:butt;stroke-linejoin:miter;stroke-miterlimit:10;stroke-dasharray:none;stroke-opacity:1"
         id="path1340" />
    </g>
    <g
       style="filter:url(#filter7727)"
       id="g1342"
       transform="matrix(0.14327103,0,0,-0.14327103,7.0100083,14.514187)">
      <path
         d="M 0,0 -5.404,-0.001"
         style="fill:none;stroke:#231f20;stroke-width:0.244;stroke-linecap:butt;stroke-linejoin:miter;stroke-miterlimit:10;stroke-dasharray:none;stroke-opacity:1"
         id="path1344" />
    </g>
    <g
       style="filter:url(#filter7727)"
       id="g1346"
       transform="matrix(0.14327103,0,0,-0.14327103,7.0100083,14.630494)">
      <path
         d="M 0,0 -5.404,-0.001"
         style="fill:none;stroke:#231f20;stroke-width:0.244;stroke-linecap:butt;stroke-linejoin:miter;stroke-miterlimit:10;stroke-dasharray:none;stroke-opacity:1"
         id="path1348" />
    </g>
    <g
       style="filter:url(#filter7727)"
       id="g1350"
       transform="matrix(0.14327103,0,0,-0.14327103,7.0100083,14.758392)">
      <path
         d="M 0,0 H -5.404"
         style="fill:none;stroke:#231f20;stroke-width:0.244;stroke-linecap:butt;stroke-linejoin:miter;stroke-miterlimit:10;stroke-dasharray:none;stroke-opacity:1"
         id="path1352" />
    </g>
    <g
       style="filter:url(#filter7727)"
       id="g1354"
       transform="matrix(0.14327103,0,0,-0.14327103,7.0100083,14.881734)">
      <path
         d="M 0,0 -5.404,-0.001"
         style="fill:none;stroke:#231f20;stroke-width:0.244;stroke-linecap:butt;stroke-linejoin:miter;stroke-miterlimit:10;stroke-dasharray:none;stroke-opacity:1"
         id="path1356" />
    </g>
    <g
       style="filter:url(#filter7727)"
       id="g1358"
       transform="matrix(0.14327103,0,0,-0.14327103,6.6195088,14.268276)">
      <path
         d="M 0,0 V -5.001"
         style="fill:none;stroke:#231f20;stroke-width:0.244;stroke-linecap:butt;stroke-linejoin:miter;stroke-miterlimit:10;stroke-dasharray:none;stroke-opacity:1"
         id="path1360" />
    </g>
    <g
       style="filter:url(#filter7727)"
       id="g1362"
       transform="matrix(0.14327103,0,0,-0.14327103,5.7068007,13.711267)">
      <path
         d="M 0,0 0.929,-0.887 0.055,-1.802"
         style="fill:none;stroke:#231f20;stroke-width:0.244;stroke-linecap:butt;stroke-linejoin:miter;stroke-miterlimit:10;stroke-dasharray:none;stroke-opacity:1"
         id="path1364" />
    </g>
    <g
       style="filter:url(#filter7727)"
       id="g1366"
       transform="matrix(0.14327103,0,0,-0.14327103,4.9934829,13.44858)">
      <path
         d="M 0,0 0.001,-5.404"
         style="fill:none;stroke:#231f20;stroke-width:0.244;stroke-linecap:butt;stroke-linejoin:miter;stroke-miterlimit:10;stroke-dasharray:none;stroke-opacity:1"
         id="path1368" />
    </g>
    <g
       style="filter:url(#filter7727)"
       id="g1370"
       transform="matrix(0.14327103,0,0,-0.14327103,5.2389778,13.44858)">
      <path
         d="M 0,0 0.001,-5.404"
         style="fill:none;stroke:#231f20;stroke-width:0.244;stroke-linecap:butt;stroke-linejoin:miter;stroke-miterlimit:10;stroke-dasharray:none;stroke-opacity:1"
         id="path1372" />
    </g>
    <g
       style="filter:url(#filter7727)"
       id="g1374"
       transform="matrix(0.14327103,0,0,-0.14327103,5.1182433,13.44858)">
      <path
         d="M 0,0 0.001,-5.404"
         style="fill:none;stroke:#231f20;stroke-width:0.244;stroke-linecap:butt;stroke-linejoin:miter;stroke-miterlimit:10;stroke-dasharray:none;stroke-opacity:1"
         id="path1376" />
    </g>
    <g
       style="filter:url(#filter7727)"
       id="g1378"
       transform="matrix(0.14327103,0,0,-0.14327103,5.3642253,13.44858)">
      <path
         d="M 0,0 0.001,-5.404"
         style="fill:none;stroke:#231f20;stroke-width:0.244;stroke-linecap:butt;stroke-linejoin:miter;stroke-miterlimit:10;stroke-dasharray:none;stroke-opacity:1"
         id="path1380" />
    </g>
    <g
       style="filter:url(#filter7727)"
       id="g1382"
       transform="matrix(0.14327103,0,0,-0.14327103,5.4805327,13.44858)">
      <path
         d="M 0,0 0.001,-5.404"
         style="fill:none;stroke:#231f20;stroke-width:0.244;stroke-linecap:butt;stroke-linejoin:miter;stroke-miterlimit:10;stroke-dasharray:none;stroke-opacity:1"
         id="path1384" />
    </g>
    <g
       style="filter:url(#filter7727)"
       id="g1386"
       transform="matrix(0.14327103,0,0,-0.14327103,5.6084451,13.44858)">
      <path
         d="M 0,0 V -5.404"
         style="fill:none;stroke:#231f20;stroke-width:0.244;stroke-linecap:butt;stroke-linejoin:miter;stroke-miterlimit:10;stroke-dasharray:none;stroke-opacity:1"
         id="path1388" />
    </g>
    <g
       style="filter:url(#filter7727)"
       id="g1390"
       transform="matrix(0.14327103,0,0,-0.14327103,5.7317728,13.44858)">
      <path
         d="M 0,0 0.001,-5.404"
         style="fill:none;stroke:#231f20;stroke-width:0.244;stroke-linecap:butt;stroke-linejoin:miter;stroke-miterlimit:10;stroke-dasharray:none;stroke-opacity:1"
         id="path1392" />
    </g>
    <g
       style="filter:url(#filter7727)"
       id="g1394"
       transform="matrix(0.14327103,0,0,-0.14327103,4.9934829,13.839065)">
      <path
         d="M 0,0 H 5.872"
         style="fill:none;stroke:#231f20;stroke-width:0.244;stroke-linecap:butt;stroke-linejoin:miter;stroke-miterlimit:10;stroke-dasharray:none;stroke-opacity:1"
         id="path1396" />
    </g>
    <g
       style="filter:url(#filter7727)"
       id="g1398"
       transform="matrix(0.14327103,0,0,-0.14327103,-63.294132,75.08978)">
      <g
         id="g1400"
         clip-path="url(#clipPath1404)">
        <g
           id="g1406"
           transform="translate(441.2501,400.7081)">
          <path
             d="M 0,0 H 22.656"
             style="fill:none;stroke:#231f20;stroke-width:1.46300006;stroke-linecap:butt;stroke-linejoin:miter;stroke-miterlimit:10;stroke-dasharray:none;stroke-opacity:1"
             id="path1408" />
        </g>
        <g
           id="g1410"
           transform="translate(469.2599,400.6883)">
          <path
             d="M 0,0 H 1.762 V -49.647 H -28.053"
             style="fill:none;stroke:#231f20;stroke-width:1.46300006;stroke-linecap:butt;stroke-linejoin:miter;stroke-miterlimit:10;stroke-dasharray:none;stroke-opacity:1"
             id="path1412" />
        </g>
      </g>
    </g>
    <g
       style="filter:url(#filter7727)"
       id="g1414"
       transform="matrix(0.14327103,0,0,-0.14327103,11.747981,17.870339)">
      <path
         d="M 0,0 V 1.502 4.723 H -18.499 V 1.371 0"
         style="fill:#ffffff;fill-opacity:1;fill-rule:nonzero;stroke:#231f20;stroke-width:1.46300006;stroke-linecap:butt;stroke-linejoin:miter;stroke-miterlimit:10;stroke-dasharray:none;stroke-opacity:1"
         id="path1416" />
    </g>
    <g
       style="filter:url(#filter7727)"
       id="g1418"
       transform="matrix(0.14327103,0,0,-0.14327103,8.3991929,17.156305)">
      <path
         d="M 0,0 V -48.888 H 28.553"
         style="fill:none;stroke:#231f20;stroke-width:1.46300006;stroke-linecap:butt;stroke-linejoin:miter;stroke-miterlimit:10;stroke-dasharray:none;stroke-opacity:1"
         id="path1420" />
    </g>
    <g
       style="filter:url(#filter7727)"
       id="g1422"
       transform="matrix(0.14327103,0,0,-0.14327103,7.5993107,13.448823)">
      <path
         d="M 0,0 H 5.126 V -9.686 H 33.462"
         style="fill:none;stroke:#231f20;stroke-width:1.46300006;stroke-linecap:butt;stroke-linejoin:miter;stroke-miterlimit:10;stroke-dasharray:none;stroke-opacity:1"
         id="path1424" />
    </g>
    <g
       style="filter:url(#filter7727)"
       id="g1426"
       transform="matrix(0.14327103,0,0,-0.14327103,5.0347879,14.945547)">
      <path
         d="M 0,0 V 4.418 H 8.662 V 0 Z"
         style="fill:#ffffff;fill-opacity:1;fill-rule:nonzero;stroke:none"
         id="path1428" />
    </g>
    <g
       style="filter:url(#filter7727)"
       id="g1430"
       transform="matrix(0.14327103,0,0,-0.14327103,5.0347879,14.945547)">
      <path
         d="M 0,0 V 4.418 H 8.662 V 0 Z"
         style="fill:none;stroke:#231f20;stroke-width:1.46300006;stroke-linecap:butt;stroke-linejoin:miter;stroke-miterlimit:10;stroke-dasharray:none;stroke-opacity:1"
         id="path1432" />
    </g>
    <g
       style="filter:url(#filter7727)"
       id="g1434"
       transform="matrix(0.14327103,0,0,-0.14327103,7.5838231,21.060097)">
      <path
         d="M 0,0 H 5.517"
         style="fill:none;stroke:#231f20;stroke-width:1.46300006;stroke-linecap:butt;stroke-linejoin:miter;stroke-miterlimit:10;stroke-dasharray:none;stroke-opacity:1"
         id="path1436" />
    </g>
    <g
       style="filter:url(#filter7727)"
       id="g1438"
       transform="matrix(0.14327103,0,0,-0.14327103,6.8395731,21.091817)">
      <path
         d="M 0,0 0.59,0.221 H 3.236"
         style="fill:none;stroke:#231f20;stroke-width:1.46300006;stroke-linecap:butt;stroke-linejoin:miter;stroke-miterlimit:10;stroke-dasharray:none;stroke-opacity:1"
         id="path1440" />
    </g>
    <g
       style="filter:url(#filter7727)"
       id="g1442"
       transform="matrix(0.14327103,0,0,-0.14327103,4.1897467,17.682826)">
      <path
         d="M 0,0 H 22.743 V -19.658 H 19.151 L 6.225,-24.4 7.4,-27.958 l 8.905,3.342"
         style="fill:none;stroke:#231f20;stroke-width:1.46300006;stroke-linecap:butt;stroke-linejoin:miter;stroke-miterlimit:10;stroke-dasharray:none;stroke-opacity:1"
         id="path1444" />
    </g>
    <g
       style="filter:url(#filter7727)"
       id="g1446"
       transform="matrix(0.14327103,0,0,-0.14327103,7.0272008,13.44858)">
      <path
         d="M 0,0 V -10.188 H 3.33 V -0.001 Z"
         style="fill:#ffffff;fill-opacity:1;fill-rule:nonzero;stroke:none"
         id="path1448" />
    </g>
    <g
       style="filter:url(#filter7727)"
       id="g1450"
       transform="matrix(0.14327103,0,0,-0.14327103,7.0272008,13.44858)">
      <path
         d="M 0,0 V -10.188 H 3.33 V -0.001 Z"
         style="fill:none;stroke:#231f20;stroke-width:1.46300006;stroke-linecap:butt;stroke-linejoin:miter;stroke-miterlimit:10;stroke-dasharray:none;stroke-opacity:1"
         id="path1452" />
    </g>
    <g
       style="filter:url(#filter7727)"
       id="g1454"
       transform="matrix(0.14327103,0,0,-0.14327103,5.0347879,14.945547)">
      <path
         d="M 0,0 H -20.567 V -19.237"
         style="fill:none;stroke:#231f20;stroke-width:1.46300006;stroke-linecap:butt;stroke-linejoin:miter;stroke-miterlimit:10;stroke-dasharray:none;stroke-opacity:1"
         id="path1456" />
    </g>
    <g
       style="filter:url(#filter7727)"
       id="g1458"
       transform="matrix(0.14327103,0,0,-0.14327103,7.0272008,13.445843)">
      <path
         d="M 0,0 -20.24,-0.019 V -9.82"
         style="fill:none;stroke:#231f20;stroke-width:1.46300006;stroke-linecap:butt;stroke-linejoin:miter;stroke-miterlimit:10;stroke-dasharray:none;stroke-opacity:1"
         id="path1460" />
    </g>
    <g
       style="filter:url(#filter7727)"
       id="g1462"
       transform="matrix(0.14327103,0,0,-0.14327103,40.755479,17.69893)">
      <path
         d="m 0,0 v -1.501 h 2.807 v -7.966 h 12.602 v 8.488 h 3.177 v 1.85"
         style="fill:none;stroke:#231f20;stroke-width:1.46300006;stroke-linecap:butt;stroke-linejoin:miter;stroke-miterlimit:10;stroke-dasharray:none;stroke-opacity:1"
         id="path1464" />
    </g>
    <g
       style="filter:url(#filter7727)"
       id="g1466"
       transform="matrix(0.14327103,0,0,-0.14327103,41.15767,19.055262)">
      <path
         d="M 0,0 H -3.264 V -2.175 H -8.52"
         style="fill:none;stroke:#231f20;stroke-width:1.46300006;stroke-linecap:butt;stroke-linejoin:miter;stroke-miterlimit:10;stroke-dasharray:none;stroke-opacity:1"
         id="path1468" />
    </g>
    <g
       style="filter:url(#filter7727)"
       id="g1470"
       transform="matrix(0.14327103,0,0,-0.14327103,41.173358,17.48057)">
      <path
         d="M 0,0 V 8.727 H 1.393"
         style="fill:none;stroke:#231f20;stroke-width:1.46300006;stroke-linecap:butt;stroke-linejoin:miter;stroke-miterlimit:10;stroke-dasharray:none;stroke-opacity:1"
         id="path1472" />
    </g>
    <g
       style="filter:url(#filter7727)"
       id="g1474"
       transform="matrix(0.14327103,0,0,-0.14327103,41.647241,16.227164)">
      <path
         d="M 0,0 H 1.175"
         style="fill:none;stroke:#231f20;stroke-width:1.46300006;stroke-linecap:butt;stroke-linejoin:miter;stroke-miterlimit:10;stroke-dasharray:none;stroke-opacity:1"
         id="path1476" />
    </g>
    <g
       style="filter:url(#filter7727)"
       id="g1478"
       transform="matrix(0.14327103,0,0,-0.14327103,42.002711,16.227164)">
      <path
         d="M 0,0 H 7.049"
         style="fill:none;stroke:#231f20;stroke-width:1.46300006;stroke-linecap:butt;stroke-linejoin:miter;stroke-miterlimit:10;stroke-dasharray:none;stroke-opacity:1"
         id="path1480" />
    </g>
    <g
       style="filter:url(#filter7727)"
       id="g1482"
       transform="matrix(0.14327103,0,0,-0.14327103,43.034936,17.839207)">
      <path
         d="M 0,0 H -2.329 V 11.122"
         style="fill:none;stroke:#231f20;stroke-width:1.46300006;stroke-linecap:butt;stroke-linejoin:miter;stroke-miterlimit:10;stroke-dasharray:none;stroke-opacity:1"
         id="path1484" />
    </g>
    <g
       style="filter:url(#filter7727)"
       id="g1486"
       transform="matrix(0.14327103,0,0,-0.14327103,44.060613,24.770688)">
      <path
         d="m 0,0 h -28.4 v -10.49 h 6.768 l 3.439,3.439 -0.04,7.051"
         style="fill:none;stroke:#231f20;stroke-width:1.46300006;stroke-linecap:butt;stroke-linejoin:miter;stroke-miterlimit:10;stroke-dasharray:none;stroke-opacity:1"
         id="path1488" />
    </g>
    <g
       style="filter:url(#filter7727)"
       id="g1490"
       transform="matrix(0.14327103,0,0,-0.14327103,-63.294132,75.08978)">
      <g
         id="g1492"
         clip-path="url(#clipPath1496)">
        <g
           id="g1498"
           transform="translate(809.6631,410.5869)">
          <path
             d="m 0,0 h -60.351 v -21.676 h -0.316 -4.08 v 2.241 h -3.176"
             style="fill:none;stroke:#231f20;stroke-width:1.46300006;stroke-linecap:butt;stroke-linejoin:miter;stroke-miterlimit:10;stroke-dasharray:none;stroke-opacity:1"
             id="path1500" />
        </g>
        <g
           id="g1502"
           transform="translate(809.3142,420.3152)">
          <path
             d="M 0,0 H -2.785 V 2.089"
             style="fill:none;stroke:#231f20;stroke-width:1.46300006;stroke-linecap:butt;stroke-linejoin:miter;stroke-miterlimit:10;stroke-dasharray:none;stroke-opacity:1"
             id="path1504" />
        </g>
        <g
           id="g1506"
           transform="translate(809.6631,449.6853)">
          <path
             d="m 0,0 h -30.621 v -19.243 -10.78"
             style="fill:none;stroke:#231f20;stroke-width:1.46300006;stroke-linecap:butt;stroke-linejoin:miter;stroke-miterlimit:10;stroke-dasharray:none;stroke-opacity:1"
             id="path1508" />
        </g>
      </g>
    </g>
    <g
       style="filter:url(#filter7727)"
       id="g1510"
       transform="matrix(0.14327103,0,0,-0.14327103,49.140001,14.61505)">
      <path
         d="m 0,0 v -1.828 h 17.542 v 1.85"
         style="fill:none;stroke:#231f20;stroke-width:1.46300006;stroke-linecap:butt;stroke-linejoin:miter;stroke-miterlimit:10;stroke-dasharray:none;stroke-opacity:1"
         id="path1512" />
    </g>
    <g
       style="filter:url(#filter7727)"
       id="g1514"
       transform="matrix(0.14327103,0,0,-0.14327103,39.894879,14.838037)">
      <path
         d="M 0,0 H 15.104"
         style="fill:none;stroke:#231f20;stroke-width:1.46300006;stroke-linecap:butt;stroke-linejoin:miter;stroke-miterlimit:10;stroke-dasharray:none;stroke-opacity:1"
         id="path1516" />
    </g>
    <g
       style="filter:url(#filter7727)"
       id="g1518"
       transform="matrix(0.14327103,0,0,-0.14327103,42.673119,14.84275)">
      <path
         d="m 0,0 h 24.267 v 3.843 h 5.81 v -4.691 h 9.969 v 2.437 h 1.044"
         style="fill:none;stroke:#231f20;stroke-width:1.46300006;stroke-linecap:butt;stroke-linejoin:miter;stroke-miterlimit:10;stroke-dasharray:none;stroke-opacity:1"
         id="path1520" />
    </g>
    <g
       style="filter:url(#filter7727)"
       id="g1522"
       transform="matrix(0.14327103,0,0,-0.14327103,42.77295,29.036296)">
      <path
         d="M 0,0 V 23.679 Z"
         style="fill:#231f20;fill-opacity:1;fill-rule:nonzero;stroke:none"
         id="path1524" />
    </g>
    <g
       style="filter:url(#filter7727)"
       id="g1526"
       transform="matrix(0.14327103,0,0,-0.14327103,-63.294132,75.08978)">
      <g
         id="g1528"
         clip-path="url(#clipPath1532)">
        <g
           id="g1534"
           transform="translate(740.325,321.4432)">
          <path
             d="M 0,0 V 23.679"
             style="fill:none;stroke:#231f20;stroke-width:1.46300006;stroke-linecap:butt;stroke-linejoin:miter;stroke-miterlimit:10;stroke-dasharray:none;stroke-opacity:1"
             id="path1536" />
        </g>
        <g
           id="g1538"
           transform="translate(769.6841,321.4432)">
          <path
             d="m 0,0 v 21.829 h 2.632 v 1.633 h 25.029 v 6.31 h -48.033"
             style="fill:none;stroke:#231f20;stroke-width:1.46300006;stroke-linecap:butt;stroke-linejoin:miter;stroke-miterlimit:10;stroke-dasharray:none;stroke-opacity:1"
             id="path1540" />
        </g>
      </g>
    </g>
    <g
       style="filter:url(#filter7727)"
       id="g1542"
       transform="matrix(0.14327103,0,0,-0.14327103,43.229684,25.949307)">
      <path
         d="M 0,0 V 2.133 H 22.994 V 0.022"
         style="fill:none;stroke:#231f20;stroke-width:1.46300006;stroke-linecap:butt;stroke-linejoin:miter;stroke-miterlimit:10;stroke-dasharray:none;stroke-opacity:1"
         id="path1544" />
    </g>
    <path
       d="m 706.766,341.096 h 7.802 v 4.336 h -7.802 z"
       style="fill:#ffffff;fill-opacity:1;fill-rule:nonzero;stroke:none;filter:url(#filter7727)"
       id="path1546"
       transform="matrix(0.14327103,0,0,-0.14327103,-63.294132,75.08978)" />
    <g
       style="filter:url(#filter7727)"
       id="g1548"
       transform="matrix(0.14327103,0,0,-0.14327103,37.964903,26.220619)">
      <path
         d="M 0,0 H 7.802 V 4.336 H 0 Z"
         style="fill:none;stroke:#231f20;stroke-width:0.97500002;stroke-linecap:butt;stroke-linejoin:miter;stroke-miterlimit:10;stroke-dasharray:none;stroke-opacity:1"
         id="path1550" />
    </g>
    <g
       style="filter:url(#filter7727)"
       id="g1552"
       transform="matrix(0.14327103,0,0,-0.14327103,37.082383,24.714611)">
      <path
         d="m 0,0 v -10.312 h -9.728 v -9.384 h 40.654 v 5.615 l 3.134,3.135 h 5.798"
         style="fill:none;stroke:#231f20;stroke-width:1.46300006;stroke-linecap:butt;stroke-linejoin:miter;stroke-miterlimit:10;stroke-dasharray:none;stroke-opacity:1"
         id="path1554" />
    </g>
    <g
       style="filter:url(#filter7727)"
       id="g1556"
       transform="matrix(0.14327103,0,0,-0.14327103,-63.294132,75.08978)">
      <g
         id="g1558"
         clip-path="url(#clipPath1562)">
        <g
           id="g1564"
           transform="translate(559.2084,352.0002)">
          <path
             d="M 0,0 V -30.339"
             style="fill:none;stroke:#231f20;stroke-width:1.46300006;stroke-linecap:butt;stroke-linejoin:miter;stroke-miterlimit:10;stroke-dasharray:none;stroke-opacity:1"
             id="path1566" />
        </g>
        <g
           id="g1568"
           transform="translate(618.6862,351.0251)">
          <path
             d="M 0,0 V -30.339"
             style="fill:none;stroke:#231f20;stroke-width:1.46300006;stroke-linecap:butt;stroke-linejoin:miter;stroke-miterlimit:10;stroke-dasharray:none;stroke-opacity:1"
             id="path1570" />
        </g>
      </g>
    </g>
    <g
       style="filter:url(#filter7727)"
       id="g1572"
       transform="matrix(0.14327103,0,0,-0.14327103,8.3991929,24.160582)">
      <path
         d="M 0,0 V -4.063 H -12.853 V 5.1 h -1.707 v 0.892 h -8.771 v 10.86 l 1.35,0.403"
         style="fill:none;stroke:#231f20;stroke-width:1.46300006;stroke-linecap:butt;stroke-linejoin:miter;stroke-miterlimit:10;stroke-dasharray:none;stroke-opacity:1"
         id="path1574" />
    </g>
    <g
       style="filter:url(#filter7727)"
       id="g1576"
       transform="matrix(0.14327103,0,0,-0.14327103,6.924189,21.060097)">
      <path
         d="M 0,0 V -16.541 H -2.317"
         style="fill:none;stroke:#231f20;stroke-width:1.46300006;stroke-linecap:butt;stroke-linejoin:miter;stroke-miterlimit:10;stroke-dasharray:none;stroke-opacity:1"
         id="path1578" />
    </g>
    <path
       id="path1590"
       style="fill:none;stroke:#231f20;stroke-width:2.92499995;stroke-linecap:butt;stroke-linejoin:miter;stroke-miterlimit:10;stroke-dasharray:none;stroke-opacity:1;filter:url(#filter7727)"
       d="m 0,0 h -82.334 v 147.306 h -29.011 v -9.457 l -29.392,0.002 v 9.358 h -29.337 V -29.924 H 198.339 V 171.04 h -33.69 v -14.908 h 3.395 v -8.423 H 109.088 V 0 h -1.644"
       transform="matrix(0.14327103,0,0,-0.14327103,24.290901,24.714611)" />
    <g
       style="filter:url(#filter7727)"
       id="g1592"
       transform="matrix(0.14327103,0,0,-0.14327103,39.195602,24.714611)">
      <path
         d="M 0,0 H -97.998"
         style="fill:none;stroke:#231f20;stroke-width:2.92499995;stroke-linecap:butt;stroke-linejoin:miter;stroke-miterlimit:10;stroke-dasharray:none;stroke-opacity:1"
         id="path1594" />
    </g>
  </g>
</svg>
