<?xml version="1.0" encoding="UTF-8" standalone="no"?>
<svg
   xmlns:dc="http://purl.org/dc/elements/1.1/"
   xmlns:cc="http://creativecommons.org/ns#"
   xmlns:rdf="http://www.w3.org/1999/02/22-rdf-syntax-ns#"
   xmlns:svg="http://www.w3.org/2000/svg"
   xmlns="http://www.w3.org/2000/svg"
   xmlns:sodipodi="http://sodipodi.sourceforge.net/DTD/sodipodi-0.dtd"
   xmlns:inkscape="http://www.inkscape.org/namespaces/inkscape"
   id="svg11408"
   version="1.1"
   viewBox="0 0 26.458333 35.918763"
   height="135.75595"
   width="100"
   sodipodi:docname="building-aw.svg"
   inkscape:version="0.92.1 r15371">
  <sodipodi:namedview
     pagecolor="#ffffff"
     bordercolor="#666666"
     borderopacity="1"
     objecttolerance="10"
     gridtolerance="10"
     guidetolerance="10"
     inkscape:pageopacity="0"
     inkscape:pageshadow="2"
     inkscape:window-width="1600"
     inkscape:window-height="836"
     id="namedview6340"
     showgrid="false"
     inkscape:zoom="4.9169764"
     inkscape:cx="50"
     inkscape:cy="78.5651"
     inkscape:window-x="0"
     inkscape:window-y="27"
     inkscape:window-maximized="1"
     inkscape:current-layer="svg11408" />
  <defs
     id="defs11402">
    <clipPath
       id="clipPath56"
       clipPathUnits="userSpaceOnUse">
      <path
         id="path54"
         d="M 131.8,297.638 H 301.225 V 526.964 H 131.8 Z" />
    </clipPath>
    <clipPath
       id="clipPath108"
       clipPathUnits="userSpaceOnUse">
      <path
         id="path106"
         d="M 131.8,297.638 H 301.225 V 526.964 H 131.8 Z" />
    </clipPath>
    <clipPath
       id="clipPath152"
       clipPathUnits="userSpaceOnUse">
      <path
         id="path150"
         d="M 131.8,297.638 H 301.225 V 526.964 H 131.8 Z" />
    </clipPath>
    <clipPath
       id="clipPath176"
       clipPathUnits="userSpaceOnUse">
      <path
         id="path174"
         d="M 131.8,297.638 H 301.225 V 526.964 H 131.8 Z" />
    </clipPath>
    <clipPath
       id="clipPath192"
       clipPathUnits="userSpaceOnUse">
      <path
         id="path190"
         d="m 134.52,524.417 h 25.384 V 415.227 H 134.52 Z" />
    </clipPath>
    <clipPath
       id="clipPath196"
       clipPathUnits="userSpaceOnUse">
      <path
         id="path194"
         d="m 134.52,415.227 h 25.384 V 524.416 H 134.52 Z" />
    </clipPath>
    <clipPath
       id="clipPath220"
       clipPathUnits="userSpaceOnUse">
      <path
         id="path218"
         d="m 264.399,524.449 h 24.253 V 415.2 h -24.253 z" />
    </clipPath>
    <clipPath
       id="clipPath224"
       clipPathUnits="userSpaceOnUse">
      <path
         id="path222"
         d="m 264.399,415.2 h 24.253 v 109.249 h -24.253 z" />
    </clipPath>
    <clipPath
       id="clipPath262"
       clipPathUnits="userSpaceOnUse">
      <path
         id="path260"
         d="M 131.8,297.638 H 301.225 V 526.964 H 131.8 Z" />
    </clipPath>
    <clipPath
       id="clipPath374"
       clipPathUnits="userSpaceOnUse">
      <path
         id="path372"
         d="M 131.8,297.638 H 301.225 V 526.964 H 131.8 Z" />
    </clipPath>
    <filter
       id="filter12334"
       style="color-interpolation-filters:sRGB;">
      <feColorMatrix
         id="feColorMatrix12330"
         result="color1"
         values="180"
         type="hueRotate" />
      <feColorMatrix
         id="feColorMatrix12332"
         result="color2"
         values="-1 0 0 0 1 0 -1 0 0 1 0 0 -1 0 1 -0.21 -0.72 -0.07 2 0 " />
    </filter>
  </defs>
  <metadata
     id="metadata11405">
    <rdf:RDF>
      <cc:Work
         rdf:about="">
        <dc:format>image/svg+xml</dc:format>
        <dc:type
           rdf:resource="http://purl.org/dc/dcmitype/StillImage" />
        <dc:title />
      </cc:Work>
    </rdf:RDF>
  </metadata>
  <g
     style="filter:url(#filter12334)"
     id="g28"
     transform="matrix(0.1561666,0,0,-0.1561666,14.357114,26.535719)">
    <path
       d="m 0,0 -5.262,-4.565 -37.453,0.104 -5.365,3.405 V 38.15 l 5.984,4.177 H -5.159 L 0,38.494 Z m -6.122,58.992 v 4.746 H -19.397 V 53.111 h -9.183 l -0.258,10.627 h -12.175 l 0.052,-4.815 h -48.048 l -0.067,-16.13 h 24.461 v -66.187 h 33.868 v -17.799 h 13.517 v 17.128 H 16.079 V 42.327 H 72.731 V 58.579 H 43.266 l -0.034,0.413 z"
       style="fill:#d7d7d7;fill-opacity:1;fill-rule:nonzero;stroke:none"
       id="path30"
       inkscape:connector-curvature="0" />
  </g>
  <path
     d="m 177.099,415.968 h -43.634 v 45.673 h 43.634 z"
     style="fill:#918f90;fill-opacity:1;fill-rule:nonzero;stroke:none;filter:url(#filter12334)"
     id="path32"
     inkscape:connector-curvature="0"
     transform="matrix(0.1561666,0,0,-0.1561666,-20.582758,82.294176)" />
  <path
     d="m 265.671,416.037 h -43.015 v 45.604 h 43.015 z"
     style="fill:#918f90;fill-opacity:1;fill-rule:nonzero;stroke:none;filter:url(#filter12334)"
     id="path34"
     inkscape:connector-curvature="0"
     transform="matrix(0.1561666,0,0,-0.1561666,-20.582758,82.294176)" />
  <text
     transform="matrix(0.1561666,0,0,0.1561666,2.2499546,13.962965)"
     style="font-variant:normal;font-weight:normal;font-stretch:normal;font-size:4.31500006px;font-family:FrutigerLTStd;-inkscape-font-specification:FrutigerLTStd-Roman;writing-mode:lr-tb;fill:#2e2a2b;fill-opacity:1;fill-rule:nonzero;stroke:none;filter:url(#filter12334)"
     id="text48">
    <tspan
       x="0 3.03776 7.3527598 9.7518997 10.95147 13.35061 15.74975"
       y="0"
       id="tspan38">AW1.120</tspan>
    <tspan
       x="44.75518 47.792938 52.107941 54.50708 55.70665 58.105789 60.504929"
       y="-5.0226598"
       id="tspan40">AW1.124</tspan>
    <tspan
       x="88.056206 91.093964 95.408966 97.808105 99.007675 101.40681 103.80595"
       y="-0.03452"
       id="tspan42">AW1.126</tspan>
    <tspan
       x="137.30762 141.62262"
       y="32.224419"
       id="tspan44">WC</tspan>
    <tspan
       x="47.702324 51.775684 54.891113 56.090687"
       y="133.65712"
       id="tspan46">MAIN</tspan>
  </text>
  <g
     style="filter:url(#filter12334)"
     id="g50"
     transform="matrix(0.1561666,0,0,-0.1561666,-20.582758,82.294176)">
    <g
       id="g52"
       clip-path="url(#clipPath56)">
      <text
         transform="matrix(1,0,0,-1,188.7518,298.7165)"
         style="font-variant:normal;font-weight:normal;font-stretch:normal;font-size:4.31500006px;font-family:FrutigerLTStd;-inkscape-font-specification:FrutigerLTStd-Roman;writing-mode:lr-tb;fill:#2e2a2b;fill-opacity:1;fill-rule:nonzero;stroke:none"
         id="text60">
        <tspan
           x="0 2.3991399 5.5145702 7.9137101 10.550175 13.665605 16.781034 19.4175"
           y="0"
           id="tspan58">ENTRANCE</tspan>
      </text>
    </g>
  </g>
  <g
     style="filter:url(#filter12334)"
     id="g62"
     transform="matrix(0.1561666,0,0,-0.1561666,25.000773,18.816357)">
    <path
       d="M 0,0 H 9.235"
       style="fill:none;stroke:#4b4748;stroke-width:0.139;stroke-linecap:butt;stroke-linejoin:miter;stroke-miterlimit:10;stroke-dasharray:none;stroke-opacity:1"
       id="path64"
       inkscape:connector-curvature="0" />
  </g>
  <g
     style="filter:url(#filter12334)"
     id="g66"
     transform="matrix(0.1561666,0,0,-0.1561666,26.132841,19.124208)">
    <path
       d="M 0,0 1.986,1.986 0.031,3.943"
       style="fill:none;stroke:#4b4748;stroke-width:0.139;stroke-linecap:butt;stroke-linejoin:miter;stroke-miterlimit:10;stroke-dasharray:none;stroke-opacity:1"
       id="path68"
       inkscape:connector-curvature="0" />
  </g>
  <g
     style="filter:url(#filter12334)"
     id="g70"
     transform="matrix(0.1561666,0,0,-0.1561666,7.8368615,16.248932)">
    <path
       d="M 0,0 V 2.476 H -4.471"
       style="fill:none;stroke:#2e2a2b;stroke-width:1.66499996;stroke-linecap:butt;stroke-linejoin:miter;stroke-miterlimit:10;stroke-dasharray:none;stroke-opacity:1"
       id="path72"
       inkscape:connector-curvature="0" />
  </g>
  <g
     style="filter:url(#filter12334)"
     id="g74"
     transform="matrix(0.1561666,0,0,-0.1561666,13.51978,16.248932)">
    <path
       d="M 0,0 V 2.476 H 4.471"
       style="fill:none;stroke:#2e2a2b;stroke-width:1.66499996;stroke-linecap:butt;stroke-linejoin:miter;stroke-miterlimit:10;stroke-dasharray:none;stroke-opacity:1"
       id="path76"
       inkscape:connector-curvature="0" />
  </g>
  <g
     style="filter:url(#filter12334)"
     id="g78"
     transform="matrix(0.1561666,0,0,-0.1561666,8.9673984,15.765565)">
    <path
       d="M 0,0 H 20.919"
       style="fill:none;stroke:#231f20;stroke-width:1.66499996;stroke-linecap:butt;stroke-linejoin:miter;stroke-miterlimit:10;stroke-dasharray:none;stroke-opacity:1"
       id="path80"
       inkscape:connector-curvature="0" />
  </g>
  <g
     style="filter:url(#filter12334)"
     id="g82"
     transform="matrix(0.1561666,0,0,-0.1561666,11.650216,30.293853)">
    <path
       d="M 0,0 H 22.699 V -18.262 H 0 Z"
       style="fill:none;stroke:#2e2a2b;stroke-width:1.66499996;stroke-linecap:butt;stroke-linejoin:miter;stroke-miterlimit:10;stroke-dasharray:none;stroke-opacity:1"
       id="path84"
       inkscape:connector-curvature="0" />
  </g>
  <g
     style="filter:url(#filter12334)"
     id="g86"
     transform="matrix(0.1561666,0,0,-0.1561666,16.77412,30.293853)">
    <path
       d="M 0,0 H -10.112 V -18.262 H 0 Z"
       style="fill:none;stroke:#2e2a2b;stroke-width:1.66499996;stroke-linecap:butt;stroke-linejoin:miter;stroke-miterlimit:10;stroke-dasharray:none;stroke-opacity:1"
       id="path88"
       inkscape:connector-curvature="0" />
  </g>
  <g
     style="filter:url(#filter12334)"
     id="g90"
     transform="matrix(0.1561666,0,0,-0.1561666,10.606882,31.683595)">
    <path
       d="M 0,0 V 3.069 M 0.637,2.505 -0.004,3.147 -0.637,2.514 M 6.062,0.49 h -1.72 m -10.524,0 h 1.84 m 0,1.634 H 4.342 M -4.342,1.075 h 8.684 m 0,-1.153 h -8.684 v 3.37 h 8.684 z"
       style="fill:none;stroke:#4b4748;stroke-width:0.278;stroke-linecap:butt;stroke-linejoin:miter;stroke-miterlimit:10;stroke-dasharray:none;stroke-opacity:1"
       id="path92"
       inkscape:connector-curvature="0" />
  </g>
  <g
     style="filter:url(#filter12334)"
     id="g94"
     transform="matrix(0.1561666,0,0,-0.1561666,11.890806,16.348784)">
    <path
       d="M 0,0 0.642,0.642 0.01,1.273 m -16.475,0 L -17.106,0.632 -16.474,0 M 0.833,0.636 h -18.19 M -8.26,-12.275 V 0.648 m 9.093,-2.141 v 2.27 m -1.548,2.27 v -4.54 m -1.393,4.54 v -4.539 m -10.808,4.539 v -4.54 h 9.363 v 4.54 m -13.723,-2.27 v -2.27 m 1.445,4.54 v -4.54 m 1.47,4.54 v -4.54 m 1.445,-1.47 h 9.466 m -9.466,-1.316 h 9.363 m -9.363,-1.315 h 9.363 m -9.363,-1.367 h 9.363 m -9.363,-1.342 h 9.363 m -9.363,-1.29 h 9.363 m -9.363,-1.341 h 9.363 M -0.715,3.047 2.2,-1.492 h -5.753 v -10.783 h -9.363 v 10.782 h -5.804 l 2.889,4.54 z"
       style="fill:none;stroke:#4b4748;stroke-width:0.278;stroke-linecap:butt;stroke-linejoin:miter;stroke-miterlimit:10;stroke-dasharray:none;stroke-opacity:1"
       id="path96"
       inkscape:connector-curvature="0" />
  </g>
  <g
     style="filter:url(#filter12334)"
     id="g98"
     transform="matrix(0.1561666,0,0,-0.1561666,7.8473871,16.932035)">
    <path
       d="M 0,0 V -3.123 H -4.676 V 43.169 H 40.653 V -3.123 h -4.539 v 3.164"
       style="fill:none;stroke:#231f20;stroke-width:1.66499996;stroke-linecap:butt;stroke-linejoin:miter;stroke-miterlimit:10;stroke-dasharray:none;stroke-opacity:1"
       id="path100"
       inkscape:connector-curvature="0" />
  </g>
  <g
     style="filter:url(#filter12334)"
     id="g102"
     transform="matrix(0.1561666,0,0,-0.1561666,-20.582758,82.294176)">
    <g
       id="g104"
       clip-path="url(#clipPath108)">
      <g
         id="g110"
         transform="translate(159.7649,377.9643)">
        <path
           d="M 0,0 V 21.407 H -26.3 V -8.151 H 0 v 2.625 z"
           style="fill:none;stroke:#2e2a2b;stroke-width:1.66499996;stroke-linecap:butt;stroke-linejoin:miter;stroke-miterlimit:10;stroke-dasharray:none;stroke-opacity:1"
           id="path112"
           inkscape:connector-curvature="0" />
      </g>
      <g
         id="g114"
         transform="translate(159.7649,347.2182)">
        <path
           d="M 0,0 V 22.285 H -26.499 V -7.945 H 0 v 2.667 z"
           style="fill:none;stroke:#2e2a2b;stroke-width:1.66499996;stroke-linecap:butt;stroke-linejoin:miter;stroke-miterlimit:10;stroke-dasharray:none;stroke-opacity:1"
           id="path116"
           inkscape:connector-curvature="0" />
      </g>
      <g
         id="g118"
         transform="translate(159.7649,339.6168)">
        <path
           d="M 0,0 H -26.499 V -24.9 H 0 v 24.556 z"
           style="fill:none;stroke:#2e2a2b;stroke-width:1.66499996;stroke-linecap:butt;stroke-linejoin:miter;stroke-miterlimit:10;stroke-dasharray:none;stroke-opacity:1"
           id="path120"
           inkscape:connector-curvature="0" />
      </g>
    </g>
  </g>
  <g
     style="filter:url(#filter12334)"
     id="g122"
     transform="matrix(0.1561666,0,0,-0.1561666,4.3671676,33.081427)">
    <path
       d="M 0,0 H 11.04 V 17.85 H 0 Z"
       style="fill:none;stroke:#2e2a2b;stroke-width:1.66499996;stroke-linecap:butt;stroke-linejoin:miter;stroke-miterlimit:10;stroke-dasharray:none;stroke-opacity:1"
       id="path124"
       inkscape:connector-curvature="0" />
  </g>
  <g
     style="filter:url(#filter12334)"
     id="g126"
     transform="matrix(0.1561666,0,0,-0.1561666,7.8798073,30.293853)">
    <path
       d="M 0,0 H -11.453 V -17.85 H 0 Z"
       style="fill:none;stroke:#2e2a2b;stroke-width:1.66499996;stroke-linecap:butt;stroke-linejoin:miter;stroke-miterlimit:10;stroke-dasharray:none;stroke-opacity:1"
       id="path128"
       inkscape:connector-curvature="0" />
  </g>
  <g
     style="filter:url(#filter12334)"
     id="g130"
     transform="matrix(0.1561666,0,0,-0.1561666,9.504674,30.293853)">
    <path
       d="M 0,0 H -10.405 V -17.85 H 0 Z"
       style="fill:none;stroke:#2e2a2b;stroke-width:1.66499996;stroke-linecap:butt;stroke-linejoin:miter;stroke-miterlimit:10;stroke-dasharray:none;stroke-opacity:1"
       id="path132"
       inkscape:connector-curvature="0" />
  </g>
  <g
     style="filter:url(#filter12334)"
     id="g134"
     transform="matrix(0.1561666,0,0,-0.1561666,20.909708,29.257375)">
    <path
       d="M 0,0 H -26.482 V -24.9 H 0.044 Z"
       style="fill:none;stroke:#2e2a2b;stroke-width:1.66499996;stroke-linecap:butt;stroke-linejoin:miter;stroke-miterlimit:10;stroke-dasharray:none;stroke-opacity:1"
       id="path136"
       inkscape:connector-curvature="0" />
  </g>
  <g
     style="filter:url(#filter12334)"
     id="g138"
     transform="matrix(0.1561666,0,0,-0.1561666,16.773948,28.443419)">
    <path
       d="M 0,0 V -5.212 H 26.483 V 39.533 H 0 V 5.278 Z"
       style="fill:none;stroke:#2e2a2b;stroke-width:1.66499996;stroke-linecap:butt;stroke-linejoin:miter;stroke-miterlimit:10;stroke-dasharray:none;stroke-opacity:1"
       id="path140"
       inkscape:connector-curvature="0" />
  </g>
  <g
     style="filter:url(#filter12334)"
     id="g142"
     transform="matrix(0.1561666,0,0,-0.1561666,16.77412,22.157104)">
    <path
       d="M 0,0 V -0.722 H 26.526 V 14.289 H 0 V 4.076 Z"
       style="fill:none;stroke:#2e2a2b;stroke-width:1.66499996;stroke-linecap:butt;stroke-linejoin:miter;stroke-miterlimit:10;stroke-dasharray:none;stroke-opacity:1"
       id="path144"
       inkscape:connector-curvature="0" />
  </g>
  <g
     style="filter:url(#filter12334)"
     id="g146"
     transform="matrix(0.1561666,0,0,-0.1561666,-20.582758,82.294176)">
    <g
       id="g148"
       clip-path="url(#clipPath152)">
      <g
         id="g154"
         transform="translate(138.9919,415.4179)">
        <path
           d="m 0,0 h -5.528 v 46.223 h 43.91 V 0 H 6.638"
           style="fill:none;stroke:#2e2a2b;stroke-width:1.66499996;stroke-linecap:butt;stroke-linejoin:miter;stroke-miterlimit:10;stroke-dasharray:none;stroke-opacity:1"
           id="path156"
           inkscape:connector-curvature="0" />
      </g>
    </g>
  </g>
  <g
     style="filter:url(#filter12334)"
     id="g158"
     transform="matrix(0.1561666,0,0,-0.1561666,19.996618,17.419775)">
    <path
       d="M 0,0 H 5.891 V 46.223 H -37.19 V 0 h 29.059"
       style="fill:none;stroke:#2e2a2b;stroke-width:1.66900003;stroke-linecap:butt;stroke-linejoin:miter;stroke-miterlimit:10;stroke-dasharray:none;stroke-opacity:1"
       id="path160"
       inkscape:connector-curvature="0" />
  </g>
  <g
     style="filter:url(#filter12334)"
     id="g162"
     transform="matrix(0.1561666,0,0,-0.1561666,11.166818,19.772269)">
    <path
       d="m 0,0 h 15.683 l 4.746,-4.816 v -39.55 l -4.746,-4.539 H -0.206"
       style="fill:none;stroke:#2e2a2b;stroke-width:3.32999992;stroke-linecap:butt;stroke-linejoin:miter;stroke-miterlimit:10;stroke-dasharray:none;stroke-opacity:1"
       id="path164"
       inkscape:connector-curvature="0" />
  </g>
  <g
     style="filter:url(#filter12334)"
     id="g166"
     transform="matrix(0.1561666,0,0,-0.1561666,10.055021,27.409706)">
    <path
       d="m 0,0 h -15.648 l -4.885,4.54 v 39.206 l 5.091,5.159 h 15.339"
       style="fill:none;stroke:#2e2a2b;stroke-width:3.32999992;stroke-linecap:butt;stroke-linejoin:miter;stroke-miterlimit:10;stroke-dasharray:none;stroke-opacity:1"
       id="path168"
       inkscape:connector-curvature="0" />
  </g>
  <g
     style="filter:url(#filter12334)"
     id="g170"
     transform="matrix(0.1561666,0,0,-0.1561666,-20.582758,82.294176)">
    <g
       id="g172"
       clip-path="url(#clipPath176)">
      <g
         id="g178"
         transform="translate(296.4657,399.3717)">
        <path
           d="M 0,0 H -30.728 V -84.655 H -92.954"
           style="fill:none;stroke:#2e2a2b;stroke-width:3.32999992;stroke-linecap:butt;stroke-linejoin:miter;stroke-miterlimit:10;stroke-dasharray:none;stroke-opacity:1"
           id="path180"
           inkscape:connector-curvature="0" />
      </g>
      <g
         id="g182"
         transform="translate(195.6708,314.7171)">
        <path
           d="M 0,0 H -62.206 V 146.924 H 70.067 V 99.712 h 30.728"
           style="fill:none;stroke:#2e2a2b;stroke-width:3.32999992;stroke-linecap:butt;stroke-linejoin:miter;stroke-miterlimit:10;stroke-dasharray:none;stroke-opacity:1"
           id="path184"
           inkscape:connector-curvature="0" />
      </g>
      <g
         id="g186">
        <g
           id="g188" />
        <g
           id="g212">
          <g
             clip-path="url(#clipPath192)"
             id="g210"
             style="opacity:0.5">
            <g
               transform="translate(134.6589,460.0422)"
               id="g200">
              <path
                 d="M 0,0 V -44.074 L 25.106,20.537 V 63.645 Z"
                 style="fill:#e0e0e0;fill-opacity:1;fill-rule:nonzero;stroke:none"
                 id="path198"
                 inkscape:connector-curvature="0" />
            </g>
            <g
               id="g208">
              <g
                 clip-path="url(#clipPath196)"
                 id="g206">
                <g
                   transform="translate(159.7649,523.6871)"
                   id="g204">
                  <path
                     d="m 0,0 -25.106,-63.645 v -44.074 L 0,-43.108 Z"
                     style="fill:none;stroke:#696767;stroke-width:0.278;stroke-linecap:butt;stroke-linejoin:miter;stroke-miterlimit:10;stroke-dasharray:2.22, 1.665;stroke-dashoffset:0;stroke-opacity:1"
                     id="path202"
                     inkscape:connector-curvature="0" />
                </g>
              </g>
            </g>
          </g>
        </g>
      </g>
      <g
         id="g214">
        <g
           id="g216" />
        <g
           id="g240">
          <g
             clip-path="url(#clipPath220)"
             id="g238"
             style="opacity:0.5">
            <g
               transform="translate(264.5379,460.0422)"
               id="g228">
              <path
                 d="M 0,0 V -44.074 L 23.976,20.074 V 63.645 Z"
                 style="fill:#e0e0e0;fill-opacity:1;fill-rule:nonzero;stroke:none"
                 id="path226"
                 inkscape:connector-curvature="0" />
            </g>
            <g
               id="g236">
              <g
                 clip-path="url(#clipPath224)"
                 id="g234">
                <g
                   transform="translate(288.5135,523.6871)"
                   id="g232">
                  <path
                     d="m 0,0 -23.976,-63.645 v -44.074 L 0,-43.57 Z"
                     style="fill:none;stroke:#696767;stroke-width:0.278;stroke-linecap:butt;stroke-linejoin:miter;stroke-miterlimit:10;stroke-dasharray:2.22, 1.665;stroke-dashoffset:0;stroke-opacity:1"
                     id="path230"
                     inkscape:connector-curvature="0" />
                </g>
              </g>
            </g>
          </g>
        </g>
      </g>
    </g>
  </g>
  <g
     style="filter:url(#filter12334)"
     id="g242"
     transform="matrix(0.1561666,0,0,-0.1561666,10.870382,7.4915458)">
    <path
       d="m 0,0 -43.342,-0.021 -0.023,45.742 43.342,0.021 z"
       style="fill:#918f90;fill-opacity:1;fill-rule:nonzero;stroke:none"
       id="path244"
       inkscape:connector-curvature="0" />
  </g>
  <g
     style="filter:url(#filter12334)"
     id="g246"
     transform="matrix(0.1561666,0,0,-0.1561666,24.904793,7.4846901)">
    <path
       d="m 0,0 -43.342,-0.022 -0.022,45.743 43.342,0.022 z"
       style="fill:#918f90;fill-opacity:1;fill-rule:nonzero;stroke:none"
       id="path248"
       inkscape:connector-curvature="0" />
  </g>
  <text
     transform="matrix(0.15616658,-7.5428911e-5,7.5428911e-5,0.15616658,13.061649,3.2006343)"
     style="font-variant:normal;font-weight:normal;font-stretch:normal;font-size:4.34780073px;font-family:FrutigerLTStd;-inkscape-font-specification:FrutigerLTStd-Roman;writing-mode:lr-tb;fill:#2e2a2b;fill-opacity:1;fill-rule:nonzero;stroke:none;filter:url(#filter12334)"
     id="text254">
    <tspan
       x="0 3.0608516 7.4086518 9.8260288 11.034718 13.452095 15.869472"
       y="0"
       id="tspan250">AW1.124</tspan>
    <tspan
       x="-43.412788 -40.351936 -36.004135 -33.586758 -32.378071 -29.960693 -27.543316 42.460621 45.521473 49.86927 52.286648 53.495338 55.912716 58.330093"
       y="5.0260572"
       id="tspan252">AW1.121AW1.125</tspan>
  </text>
  <g
     style="filter:url(#filter12334)"
     id="g256"
     transform="matrix(0.1561666,0,0,-0.1561666,-20.582758,82.294176)">
    <g
       id="g258"
       clip-path="url(#clipPath262)">
      <g
         id="g264"
         transform="translate(202.0369,489.7073)">
        <path
           d="M 0,0 45.258,0.022 M 45.24,35.986 45.259,-1.836 m 0.002,-5.643 0.002,-3.75 M -0.017,35.544 0.001,-1.858 m 0.003,-5.643 0.002,-4.487"
           style="fill:none;stroke:#2e2a2b;stroke-width:1.67799997;stroke-linecap:butt;stroke-linejoin:miter;stroke-miterlimit:10;stroke-dasharray:none;stroke-opacity:1"
           id="path266"
           inkscape:connector-curvature="0" />
      </g>
    </g>
  </g>
  <g
     style="filter:url(#filter12334)"
     id="g268"
     transform="matrix(0.1561666,0,0,-0.1561666,13.693984,6.686507)">
    <path
       d="M 0,0 0.001,-0.555"
       style="fill:none;stroke:#d7d7d7;stroke-width:0.139;stroke-linecap:butt;stroke-linejoin:miter;stroke-miterlimit:10;stroke-dasharray:none;stroke-opacity:1"
       id="path270"
       inkscape:connector-curvature="0" />
  </g>
  <g
     style="filter:url(#filter12334)"
     id="g272"
     transform="matrix(0.1561666,0,0,-0.1561666,13.694155,6.938841)">
    <path
       d="M 0,0 0.004,-7.955"
       style="fill:none;stroke:#d7d7d7;stroke-width:0.139;stroke-linecap:butt;stroke-linejoin:miter;stroke-miterlimit:10;stroke-dasharray:1.061, 1.061;stroke-dashoffset:0;stroke-opacity:1"
       id="path274"
       inkscape:connector-curvature="0" />
  </g>
  <g
     style="filter:url(#filter12334)"
     id="g276"
     transform="matrix(0.1561666,0,0,-0.1561666,13.694749,8.2639927)">
    <path
       d="M 0,0 0.001,-0.555 H 0.556"
       style="fill:none;stroke:#d7d7d7;stroke-width:0.139;stroke-linecap:butt;stroke-linejoin:miter;stroke-miterlimit:10;stroke-dasharray:none;stroke-opacity:1"
       id="path278"
       inkscape:connector-curvature="0" />
  </g>
  <g
     style="filter:url(#filter12334)"
     id="g280"
     transform="matrix(0.1561666,0,0,-0.1561666,13.937182,8.3505402)">
    <path
       d="M 0,0 7.477,0.003"
       style="fill:none;stroke:#d7d7d7;stroke-width:0.139;stroke-linecap:butt;stroke-linejoin:miter;stroke-miterlimit:10;stroke-dasharray:0.997, 0.997;stroke-dashoffset:0;stroke-opacity:1"
       id="path282"
       inkscape:connector-curvature="0" />
  </g>
  <g
     style="filter:url(#filter12334)"
     id="g284"
     transform="matrix(0.1561666,0,0,-0.1561666,15.182767,8.3499468)">
    <path
       d="M 0,0 H 0.555 V 0.555"
       style="fill:none;stroke:#d7d7d7;stroke-width:0.139;stroke-linecap:butt;stroke-linejoin:miter;stroke-miterlimit:10;stroke-dasharray:none;stroke-opacity:1"
       id="path286"
       inkscape:connector-curvature="0" />
  </g>
  <g
     style="filter:url(#filter12334)"
     id="g288"
     transform="matrix(0.1561666,0,0,-0.1561666,15.269345,8.097566)">
    <path
       d="M 0,0 -0.004,7.955"
       style="fill:none;stroke:#d7d7d7;stroke-width:0.139;stroke-linecap:butt;stroke-linejoin:miter;stroke-miterlimit:10;stroke-dasharray:1.061, 1.061;stroke-dashoffset:0;stroke-opacity:1"
       id="path290"
       inkscape:connector-curvature="0" />
  </g>
  <g
     style="filter:url(#filter12334)"
     id="g292"
     transform="matrix(0.1561666,0,0,-0.1561666,15.268674,6.7724143)">
    <path
       d="M 0,0 V 0.555"
       style="fill:none;stroke:#d7d7d7;stroke-width:0.139;stroke-linecap:butt;stroke-linejoin:miter;stroke-miterlimit:10;stroke-dasharray:none;stroke-opacity:1"
       id="path294"
       inkscape:connector-curvature="0" />
  </g>
  <g
     style="filter:url(#filter12334)"
     id="g296"
     transform="matrix(0.1561666,0,0,-0.1561666,15.899556,5.9089379)">
    <path
       d="m 0,0 -4.04,-4.974 8.162,0.004 0.002,-4.756 3.881,0.001"
       style="fill:none;stroke:#4b4748;stroke-width:0.139;stroke-linecap:butt;stroke-linejoin:miter;stroke-miterlimit:10;stroke-dasharray:none;stroke-opacity:1"
       id="path298"
       inkscape:connector-curvature="0" />
  </g>
  <g
     style="filter:url(#filter12334)"
     id="g300"
     transform="matrix(0.1561666,0,0,-0.1561666,11.857027,7.4139154)">
    <path
       d="M 0,0 3.759,0.002 3.757,4.654 11.763,4.658 7.719,9.628"
       style="fill:none;stroke:#4b4748;stroke-width:0.139;stroke-linecap:butt;stroke-linejoin:miter;stroke-miterlimit:10;stroke-dasharray:none;stroke-opacity:1"
       id="path302"
       inkscape:connector-curvature="0" />
  </g>
  <g
     style="filter:url(#filter12334)"
     id="g304"
     transform="matrix(0.1561666,0,0,-0.1561666,12.443807,6.6952367)">
    <path
       d="M 0,0 -0.002,5.094"
       style="fill:none;stroke:#4b4748;stroke-width:0.139;stroke-linecap:butt;stroke-linejoin:miter;stroke-miterlimit:10;stroke-dasharray:none;stroke-opacity:1"
       id="path306"
       inkscape:connector-curvature="0" />
  </g>
  <g
     style="filter:url(#filter12334)"
     id="g308"
     transform="matrix(0.1561666,0,0,-0.1561666,12.614279,6.6870224)">
    <path
       d="M 0,0 -0.003,5.12"
       style="fill:none;stroke:#4b4748;stroke-width:0.139;stroke-linecap:butt;stroke-linejoin:miter;stroke-miterlimit:10;stroke-dasharray:none;stroke-opacity:1"
       id="path310"
       inkscape:connector-curvature="0" />
  </g>
  <g
     style="filter:url(#filter12334)"
     id="g312"
     transform="matrix(0.1561666,0,0,-0.1561666,12.839565,6.6950181)">
    <path
       d="M 0,0 -0.002,5.094"
       style="fill:none;stroke:#4b4748;stroke-width:0.139;stroke-linecap:butt;stroke-linejoin:miter;stroke-miterlimit:10;stroke-dasharray:none;stroke-opacity:1"
       id="path314"
       inkscape:connector-curvature="0" />
  </g>
  <g
     style="filter:url(#filter12334)"
     id="g316"
     transform="matrix(0.1561666,0,0,-0.1561666,13.062867,6.69494)">
    <path
       d="M 0,0 -0.003,5.25"
       style="fill:none;stroke:#4b4748;stroke-width:0.139;stroke-linecap:butt;stroke-linejoin:miter;stroke-miterlimit:10;stroke-dasharray:none;stroke-opacity:1"
       id="path318"
       inkscape:connector-curvature="0" />
  </g>
  <g
     style="filter:url(#filter12334)"
     id="g320"
     transform="matrix(0.1561666,0,0,-0.1561666,13.277191,6.6947995)">
    <path
       d="M 0,0 -0.002,3.335"
       style="fill:none;stroke:#4b4748;stroke-width:0.139;stroke-linecap:butt;stroke-linejoin:miter;stroke-miterlimit:10;stroke-dasharray:none;stroke-opacity:1"
       id="path322"
       inkscape:connector-curvature="0" />
  </g>
  <g
     style="filter:url(#filter12334)"
     id="g324"
     transform="matrix(0.1561666,0,0,-0.1561666,13.474663,6.694737)">
    <path
       d="M 0,0 -0.001,1.818"
       style="fill:none;stroke:#4b4748;stroke-width:0.139;stroke-linecap:butt;stroke-linejoin:miter;stroke-miterlimit:10;stroke-dasharray:none;stroke-opacity:1"
       id="path326"
       inkscape:connector-curvature="0" />
  </g>
  <g
     style="filter:url(#filter12334)"
     id="g328"
     transform="matrix(0.1561666,0,0,-0.1561666,15.687763,6.1727501)">
    <path
       d="M 0,0 0.002,-3.336"
       style="fill:none;stroke:#4b4748;stroke-width:0.139;stroke-linecap:butt;stroke-linejoin:miter;stroke-miterlimit:10;stroke-dasharray:none;stroke-opacity:1"
       id="path330"
       inkscape:connector-curvature="0" />
  </g>
  <g
     style="filter:url(#filter12334)"
     id="g332"
     transform="matrix(0.1561666,0,0,-0.1561666,15.495865,6.4097173)">
    <path
       d="M 0,0 0.001,-1.819"
       style="fill:none;stroke:#4b4748;stroke-width:0.139;stroke-linecap:butt;stroke-linejoin:miter;stroke-miterlimit:10;stroke-dasharray:none;stroke-opacity:1"
       id="path334"
       inkscape:connector-curvature="0" />
  </g>
  <g
     style="filter:url(#filter12334)"
     id="g336"
     transform="matrix(0.1561666,0,0,-0.1561666,15.899884,6.6854607)">
    <path
       d="M 0,0 -0.002,5.107"
       style="fill:none;stroke:#4b4748;stroke-width:0.139;stroke-linecap:butt;stroke-linejoin:miter;stroke-miterlimit:10;stroke-dasharray:none;stroke-opacity:1"
       id="path338"
       inkscape:connector-curvature="0" />
  </g>
  <g
     style="filter:url(#filter12334)"
     id="g340"
     transform="matrix(0.1561666,0,0,-0.1561666,16.123093,6.6853358)">
    <path
       d="M 0,0 -0.003,5.107"
       style="fill:none;stroke:#4b4748;stroke-width:0.139;stroke-linecap:butt;stroke-linejoin:miter;stroke-miterlimit:10;stroke-dasharray:none;stroke-opacity:1"
       id="path342"
       inkscape:connector-curvature="0" />
  </g>
  <g
     style="filter:url(#filter12334)"
     id="g344"
     transform="matrix(0.1561666,0,0,-0.1561666,16.354516,6.6851952)">
    <path
       d="M 0,0 -0.003,5.107"
       style="fill:none;stroke:#4b4748;stroke-width:0.139;stroke-linecap:butt;stroke-linejoin:miter;stroke-miterlimit:10;stroke-dasharray:none;stroke-opacity:1"
       id="path346"
       inkscape:connector-curvature="0" />
  </g>
  <g
     style="filter:url(#filter12334)"
     id="g348"
     transform="matrix(0.1561666,0,0,-0.1561666,16.543196,6.6851171)">
    <path
       d="M 0,0 -0.003,5.107"
       style="fill:none;stroke:#4b4748;stroke-width:0.139;stroke-linecap:butt;stroke-linejoin:miter;stroke-miterlimit:10;stroke-dasharray:none;stroke-opacity:1"
       id="path350"
       inkscape:connector-curvature="0" />
  </g>
  <g
     style="filter:url(#filter12334)"
     id="g352"
     transform="matrix(0.1561666,0,0,-0.1561666,15.592626,6.2959968)">
    <path
       d="M 0,0 6.086,0.003"
       style="fill:none;stroke:#4b4748;stroke-width:0.139;stroke-linecap:butt;stroke-linejoin:miter;stroke-miterlimit:10;stroke-dasharray:none;stroke-opacity:1"
       id="path354"
       inkscape:connector-curvature="0" />
  </g>
  <g
     style="filter:url(#filter12334)"
     id="g356"
     transform="matrix(0.1561666,0,0,-0.1561666,12.443636,6.2975116)">
    <path
       d="M 0,0 5.977,0.003"
       style="fill:none;stroke:#4b4748;stroke-width:0.139;stroke-linecap:butt;stroke-linejoin:miter;stroke-miterlimit:10;stroke-dasharray:none;stroke-opacity:1"
       id="path358"
       inkscape:connector-curvature="0" />
  </g>
  <g
     style="filter:url(#filter12334)"
     id="g360"
     transform="matrix(0.1561666,0,0,-0.1561666,12.544535,6.1881482)">
    <path
       d="m 0,0 -0.647,-0.647 0.638,-0.636"
       style="fill:none;stroke:#4b4748;stroke-width:0.139;stroke-linecap:butt;stroke-linejoin:miter;stroke-miterlimit:10;stroke-dasharray:none;stroke-opacity:1"
       id="path362"
       inkscape:connector-curvature="0" />
  </g>
  <g
     style="filter:url(#filter12334)"
     id="g364"
     transform="matrix(0.1561666,0,0,-0.1561666,16.442047,6.3864798)">
    <path
       d="M 0,0 0.647,0.647 0.009,1.283"
       style="fill:none;stroke:#4b4748;stroke-width:0.139;stroke-linecap:butt;stroke-linejoin:miter;stroke-miterlimit:10;stroke-dasharray:none;stroke-opacity:1"
       id="path366"
       inkscape:connector-curvature="0" />
  </g>
  <g
     style="filter:url(#filter12334)"
     id="g368"
     transform="matrix(0.1561666,0,0,-0.1561666,-20.582758,82.294176)">
    <g
       id="g370"
       clip-path="url(#clipPath374)">
      <g
         id="g376"
         transform="translate(207.7258,478.2678)">
        <path
           d="M 0,0 -49.66,-0.024 -49.683,46.966 82.452,47.031 82.476,0.04 33.891,0.017"
           style="fill:none;stroke:#2e2a2b;stroke-width:3.32999992;stroke-linecap:butt;stroke-linejoin:miter;stroke-miterlimit:10;stroke-dasharray:none;stroke-opacity:1"
           id="path378"
           inkscape:connector-curvature="0" />
      </g>
    </g>
  </g>
</svg>
